<svg width="50" height="50" viewBox="0 0 50 50" fill="none" xmlns="http://www.w3.org/2000/svg">
<path d="M15 15L16.3511 14.0242C15.9279 13.4381 15.1751 13.1918 14.4872 13.4142C13.7994 13.6366 13.3333 14.2771 13.3333 15H15ZM25 46.6667C13.0338 46.6667 3.33333 36.9663 3.33333 25H0C0 38.807 11.1929 50 25 50V46.6667ZM46.6667 25C46.6667 36.9663 36.9663 46.6667 25 46.6667V50C38.807 50 50 38.807 50 25H46.6667ZM25 3.33333C36.9663 3.33333 46.6667 13.0338 46.6667 25H50C50 11.1929 38.807 0 25 0V3.33333ZM25 0C11.1929 0 0 11.1929 0 25H3.33333C3.33333 13.0338 13.0338 3.33333 25 3.33333V0ZM16.6667 40V15H13.3333V40H16.6667ZM13.6489 15.9758L35.3157 45.9757L38.0177 44.0243L16.3511 14.0242L13.6489 15.9758ZM33.3333 13.3333V33.3333H36.6667V13.3333H33.3333Z" fill="white"/>
</svg>
