<svg width="12" height="12" viewBox="0 0 12 12" fill="none" xmlns="http://www.w3.org/2000/svg">
<path d="M11 1L6 6M11 1V3.8125M11 1H8.1875M10.375 6.3125V9C10.375 9.70006 10.375 10.0501 10.2387 10.3175C10.1189 10.5527 9.92769 10.7439 9.6925 10.8637C9.42513 11 9.07506 11 8.375 11H3C2.29994 11 1.9499 11 1.68251 10.8637C1.44731 10.7439 1.25608 10.5527 1.13624 10.3175C1 10.0501 1 9.70006 1 9V3.625C1 2.92494 1 2.5749 1.13624 2.30751C1.25608 2.07231 1.44731 1.88108 1.68251 1.76124C1.9499 1.625 2.29993 1.625 3 1.625H5.6875" stroke="#3B2A45" stroke-linecap="round" stroke-linejoin="round"/>
</svg>
