<svg width="101" height="101" viewBox="0 0 101 101" fill="none" xmlns="http://www.w3.org/2000/svg">
<g clip-path="url(#clip0_233_557)">
<path d="M43.6405 53.1733C44.5056 52.5037 45.3708 51.8645 46.236 51.2558C44.4896 50.8449 42.8073 50.5253 41.2212 50.3123C41.1251 51.8797 41.093 53.5081 41.1571 55.2125C41.9422 54.5277 42.7753 53.8429 43.6405 53.1733Z" fill="white"/>
<path d="M40.1158 66.5348C39.8915 65.5152 39.6992 64.4956 39.523 63.4455C39.3467 62.3955 39.2025 61.3606 39.0904 60.341C37.8407 61.5889 36.7192 62.8216 35.7258 64.0238C37.0556 64.876 38.5136 65.7283 40.1158 66.5348Z" fill="white"/>
<path d="M34.2678 65.9109C30.5348 71.0089 29.3332 75.3005 30.9353 77.2027C32.2972 78.8159 35.7098 78.9072 40.2759 77.4767C41.2052 77.1875 42.1665 76.8375 43.1438 76.4418C42.2626 74.3113 41.4776 71.9829 40.8207 69.5176C38.4174 68.3914 36.2225 67.1588 34.2678 65.9109Z" fill="white"/>
<path d="M38.8022 57.2974C38.626 54.7712 38.626 52.3211 38.7702 50.0383C32.3135 49.4905 27.8274 50.6471 26.9142 52.9298C26.0009 55.2125 28.5324 58.941 33.7234 62.6846C35.1813 60.9041 36.8796 59.0779 38.8022 57.2974Z" fill="white"/>
<path d="M55.3845 45.8534C53.2056 41.364 50.6902 38.4574 48.4792 37.6356C47.9024 37.4225 47.3577 37.3617 46.845 37.4377C44.7141 37.7573 42.9037 40.5422 41.9264 45.062C41.7181 45.9903 41.5579 46.9491 41.4297 47.9687C43.7688 48.2883 46.2522 48.7905 48.8477 49.4905C51.0587 48.0752 53.2697 46.8578 55.3845 45.8534Z" fill="white"/>
<path d="M78.2794 4.56654C77.7507 3.15125 77.2219 1.99468 76.6612 0.670698C76.3728 0.00109982 75.7479 -0.24239 74.7706 0.290244C73.569 0.929406 72.3994 1.46204 70.9415 2.20773C57.1148 9.28417 33.6751 22.7522 21.9153 42.1401C11.6614 59.4584 4.01911 90.3816 35.7419 96.2558C68.6183 111.048 82.3809 89.0729 85.425 60.3715C87.3796 41.6532 84.1913 20.1804 78.2794 4.56654ZM77.0617 71.3742C75.6518 74.8896 70.1244 76.3657 62.6903 75.7418C61.7771 82.8487 59.1335 87.7337 55.2403 88.312C54.279 88.4641 53.3177 88.3424 52.3403 87.9924C50.0172 87.1402 47.6941 84.8879 45.5952 81.3877C45.0665 80.5203 44.5699 79.5768 44.0892 78.5876C43.0478 79.0137 42.0224 79.3941 41.0291 79.6985C37.0237 80.9464 33.7232 81.1442 31.4161 80.292C30.4388 79.9268 29.6377 79.3941 29.0289 78.6637C26.5455 75.7266 27.9875 70.4154 32.2652 64.5412C26.3052 60.2345 23.213 55.593 24.6229 52.0776C26.0328 48.5622 31.5443 47.086 38.9783 47.71C39.1065 46.6295 39.2827 45.5794 39.507 44.5903C40.7407 38.99 43.192 35.6268 46.4444 35.1398C50.3376 34.5463 54.4232 38.4117 57.5794 44.8946C64.4527 42.0945 70.1724 41.851 72.6558 44.7881C74.7226 47.2382 74.2099 51.3015 71.2138 56.2626C70.6851 57.1452 70.0923 58.0279 69.4354 58.9257C75.3955 63.2173 78.4716 67.8588 77.0617 71.3742Z" fill="white"/>
<path d="M54.9678 51.4536C56.0092 51.8341 57.0185 52.2298 57.9958 52.6407C57.4992 50.9819 56.9384 49.4296 56.3456 47.9991C54.9197 48.6839 53.4137 49.4753 51.8916 50.3884C52.901 50.7232 53.9263 51.0732 54.9678 51.4536Z" fill="white"/>
<path d="M46.749 71.9981C45.7076 71.6177 44.6983 71.222 43.7209 70.8111C44.2176 72.4395 44.7624 73.9917 45.3712 75.4526C46.8291 74.7526 48.3352 73.946 49.8412 73.0482C48.8158 72.7286 47.7744 72.3786 46.749 71.9981Z" fill="white"/>
<path d="M67.9934 60.7824C66.5194 62.5781 64.8051 64.3891 62.9146 66.1544C63.0908 68.711 63.0908 71.1459 62.9306 73.4134C69.4033 73.9613 73.8894 72.8199 74.8026 70.522C75.6998 68.2545 73.1684 64.526 67.9934 60.7824Z" fill="white"/>
<path d="M69.1153 55.0756C71.5346 51.0732 72.1274 47.8622 70.7655 46.249C70.4291 45.8534 69.9805 45.5642 69.4037 45.3512C67.1927 44.5446 63.2994 45.0925 58.541 47.0252C59.4222 49.1253 60.2073 51.4384 60.8642 53.9342C63.2674 55.0756 65.4784 56.293 67.433 57.5561C68.0739 56.7191 68.6346 55.8973 69.1153 55.0756Z" fill="white"/>
<path d="M61.6011 56.917C61.8094 57.9214 62.0176 58.9562 62.1939 60.0062C62.3701 61.0563 62.5143 62.0911 62.6265 63.1107C63.8441 61.8933 64.9816 60.6606 65.991 59.4279C64.6612 58.5757 63.2032 57.7387 61.6011 56.917Z" fill="white"/>
<path d="M46.332 77.6136C46.7806 78.5419 47.2453 79.4094 47.7259 80.2159C50.1292 84.2183 52.7407 86.3336 54.8716 85.9988C57.387 85.6184 59.5018 81.6464 60.2869 75.4679C57.9477 75.1483 55.4644 74.6461 52.8849 73.9461C50.6739 75.3613 48.4789 76.594 46.332 77.6136Z" fill="white"/>
<path d="M58.076 70.2785C57.2268 70.9481 56.3617 71.5872 55.4805 72.196C57.2268 72.6068 58.9091 72.9264 60.4952 73.1395C60.5914 71.6024 60.6234 69.9741 60.5753 68.2392C59.7743 68.9393 58.9411 69.6089 58.076 70.2785Z" fill="white"/>
<path d="M60.3833 65.1652C60.2551 63.6282 60.0469 62.0303 59.7745 60.3715C59.5021 58.7279 59.1657 57.1148 58.7972 55.5625C57.3232 54.8929 55.7531 54.2538 54.1028 53.6451C53.1415 53.295 52.1963 52.9755 51.267 52.6711C50.5941 52.458 49.9212 52.245 49.2643 52.0624C49.1682 52.1232 49.072 52.1993 48.9759 52.2602C48.7356 52.4276 48.4953 52.595 48.2389 52.7624C48.2069 52.7928 48.1748 52.8081 48.1428 52.8385C47.8384 53.0515 47.534 53.2646 47.2296 53.4929C47.0373 53.6298 46.845 53.782 46.6528 53.919C46.5086 54.0255 46.3644 54.132 46.2202 54.2386C45.8837 54.4973 45.5313 54.756 45.1948 55.0147C44.5219 55.5473 43.849 56.08 43.2081 56.6126C43.128 56.6735 43.0639 56.7343 42.9838 56.7952C42.7435 57.0083 42.4871 57.2061 42.2628 57.4192C42.2468 57.4344 42.2468 57.4344 42.2308 57.4496C41.9264 57.7083 41.638 57.967 41.3496 58.2257C41.3496 58.2562 41.3496 58.2714 41.3496 58.3018C41.4778 59.8388 41.6861 61.4367 41.9584 63.0955C42.2308 64.7391 42.5673 66.3522 42.9358 67.9045C44.4097 68.5741 45.9799 69.2132 47.6301 69.8219C48.5914 70.172 49.5367 70.4915 50.4659 70.7959C51.1388 71.009 51.8117 71.222 52.4686 71.4046C52.5647 71.3437 52.6609 71.2677 52.757 71.2068C52.9973 71.0394 53.2377 70.872 53.494 70.7046C53.5261 70.6742 53.5581 70.6589 53.5901 70.6285C53.8945 70.4154 54.199 70.2024 54.5034 69.9741C54.6956 69.8372 54.8879 69.685 55.0801 69.548C55.2243 69.4415 55.3685 69.335 55.5127 69.2284C55.8492 68.9697 56.2017 68.711 56.5381 68.4523C57.211 67.9197 57.8839 67.387 58.5248 66.8544C58.6049 66.7935 58.669 66.7327 58.7491 66.6718C58.9894 66.4587 59.2458 66.2609 59.4861 66.0478C59.5021 66.0326 59.5021 66.0326 59.5181 66.0174C59.8225 65.7587 60.1109 65.5 60.3993 65.2413C60.3833 65.2108 60.3833 65.1804 60.3833 65.1652ZM55.5287 63.4455C54.5354 65.9261 51.6515 67.1588 49.056 66.2C46.4765 65.2565 45.1788 62.4716 46.1721 60.0062C47.1655 57.5257 50.0494 56.293 52.6449 57.2518C55.2243 58.1953 56.5221 60.965 55.5287 63.4455Z" fill="white"/>
</g>
<defs>
<clipPath id="clip0_233_557">
<rect width="100.8" height="100.8" fill="white"/>
</clipPath>
</defs>
</svg>
