<svg width="30" height="28" viewBox="0 0 30 28" fill="none" xmlns="http://www.w3.org/2000/svg">
<path d="M13.3129 20.211C13.8629 20.236 14.4249 20.254 14.9939 20.254C15.5689 20.254 16.1369 20.242 16.6939 20.211C16.1369 20.931 15.5869 21.568 15.0049 22.175L15.0129 22.167C14.4339 21.567 13.8779 20.929 13.3539 20.265L13.3129 20.211ZM7.61488 19.411C8.69788 19.686 10.0189 19.92 11.3669 20.064L11.4979 20.075C12.3229 21.208 13.1569 22.205 14.0519 23.143L14.0409 23.131C12.7299 24.594 10.9609 25.622 8.95988 25.991L8.90488 25.999C8.90088 25.999 8.89688 25.999 8.89288 25.999C8.64488 25.999 8.41088 25.938 8.20588 25.83L8.21388 25.834C7.38188 25.359 7.02088 23.542 7.30188 21.207C7.36888 20.632 7.47888 20.027 7.61388 19.41L7.61488 19.411ZM22.3979 19.398C22.5159 19.872 22.6269 20.476 22.7059 21.09L22.7149 21.176C23.0019 23.51 22.6479 25.325 21.8229 25.81C21.6389 25.912 21.4189 25.972 21.1849 25.972C21.1619 25.972 21.1389 25.971 21.1159 25.97H21.1189C19.0659 25.595 17.2979 24.574 15.9899 23.129L15.9829 23.121C16.8619 22.198 17.6899 21.203 18.4489 20.156L18.5069 20.072C19.9829 19.918 21.3059 19.68 22.5949 19.355L22.3979 19.397V19.398ZM8.78388 15.666C9.03388 16.156 9.29588 16.644 9.58388 17.134C9.87122 17.6213 10.1649 18.0973 10.4649 18.562C9.59688 18.435 8.75888 18.275 7.95788 18.08C8.18288 17.293 8.46488 16.478 8.78288 15.664L8.78388 15.666ZM21.2119 15.641C21.5429 16.462 21.8239 17.281 22.0569 18.075C21.2569 18.271 20.4119 18.437 19.5379 18.562C19.8379 18.093 20.1379 17.61 20.4189 17.115C20.6999 16.628 20.9629 16.13 21.2139 15.64L21.2119 15.641ZM6.61888 10.292C7.05488 11.77 7.52288 13.006 8.06788 14.198L7.99288 14.016C7.52688 15.021 7.06588 16.25 6.68788 17.515L6.63588 17.72C5.92988 17.503 5.36188 17.29 4.80888 17.051L4.92388 17.095C2.75988 16.174 1.35988 14.963 1.35988 14.003C1.35988 13.043 2.75988 11.826 4.92388 10.909C5.44888 10.684 6.02488 10.481 6.61888 10.292ZM23.3579 10.287C23.9629 10.474 24.5379 10.683 25.0759 10.909C27.2399 11.834 28.6399 13.043 28.6399 14.003C28.6339 14.963 27.2339 16.177 25.0699 17.096C24.5449 17.321 23.9699 17.523 23.3769 17.712C22.9369 16.229 22.4689 14.994 21.9259 13.8L22.0019 13.988C22.4659 12.984 22.9279 11.755 23.3049 10.49L23.3579 10.284V10.287ZM19.5299 9.444C20.3989 9.573 21.2359 9.731 22.0369 9.928C21.8119 10.718 21.5309 11.53 21.2119 12.344C20.9619 11.857 20.6999 11.366 20.4119 10.877C20.1309 10.387 19.8309 9.91 19.5309 9.445L19.5299 9.444ZM10.4579 9.444C10.1579 9.915 9.85788 10.397 9.57788 10.894C9.29688 11.381 9.03388 11.871 8.78388 12.361C8.45288 11.541 8.17188 10.724 7.93888 9.928C8.73888 9.741 9.58188 9.574 10.4569 9.446L10.4579 9.444ZM14.9999 9.126C15.9249 9.126 16.8459 9.168 17.7519 9.242C18.2592 9.96933 18.7519 10.744 19.2299 11.566C19.6945 12.366 20.1186 13.1767 20.5019 13.998C20.1169 14.817 19.6949 15.635 19.2359 16.435C18.7609 17.26 18.2699 18.045 17.7609 18.772C16.8509 18.851 15.9289 18.894 14.9989 18.894C14.0739 18.894 13.1529 18.85 12.2469 18.778C11.7399 18.051 11.2449 17.273 10.7689 16.454C10.3042 15.654 9.88022 14.8433 9.49688 14.022C9.87588 13.201 10.3039 12.381 10.7629 11.58C11.2379 10.755 11.7289 9.973 12.2379 9.246C13.1479 9.166 14.0699 9.124 14.9999 9.124V9.126ZM14.9809 5.845C15.5609 6.445 16.1169 7.082 16.6399 7.746L16.6799 7.799C16.1299 7.774 15.5679 7.757 14.9989 7.757C14.4239 7.757 13.8559 7.769 13.2989 7.799C13.8549 7.079 14.4049 6.442 14.9879 5.835L14.9799 5.843L14.9809 5.845ZM8.87988 2.033C10.9329 2.409 12.6999 3.43 14.0089 4.874L14.0159 4.882C13.1369 5.806 12.3089 6.801 11.5499 7.85L11.4919 7.934C10.0169 8.087 8.69388 8.323 7.40588 8.648L7.60188 8.606C7.46188 7.994 7.35788 7.401 7.28488 6.832C6.99788 4.498 7.35188 2.683 8.17688 2.2C8.38288 2.103 8.62388 2.043 8.87788 2.035H8.88088L8.87988 2.033ZM21.0899 2.008V2.016C21.1029 2.016 21.1179 2.015 21.1339 2.015C21.3729 2.015 21.5979 2.074 21.7959 2.178L21.7879 2.174C22.6199 2.651 22.9809 4.467 22.6999 6.803C22.6329 7.378 22.5229 7.984 22.3879 8.602C21.3029 8.324 19.9819 8.089 18.6339 7.946L18.5059 7.935C17.6799 6.801 16.8459 5.804 15.9509 4.865L15.9629 4.877C17.2739 3.417 19.0399 2.389 21.0369 2.018L21.0929 2.009L21.0899 2.008ZM21.0959 0.645997C18.6539 1.017 16.5399 2.203 14.9959 3.914L14.9879 3.923C13.4329 2.213 11.3189 1.035 8.93688 0.677997L8.88088 0.670997C8.86788 0.670997 8.85188 0.670997 8.83588 0.670997C8.34488 0.670997 7.88388 0.799997 7.48488 1.026L7.49888 1.019C5.78088 2.01 5.39588 5.098 6.28288 8.973C2.47888 10.148 0.00488281 12.026 0.00488281 14.005C0.00488281 15.992 2.49188 17.875 6.30688 19.041C5.42688 22.931 5.81988 26.024 7.54188 27.014C7.91988 27.231 8.37388 27.358 8.85688 27.358C8.87888 27.358 8.90088 27.358 8.92188 27.357H8.91888C11.3609 26.986 13.4749 25.799 15.0189 24.087L15.0269 24.078C16.5819 25.789 18.6959 26.967 21.0779 27.324L21.1339 27.331C21.1489 27.331 21.1679 27.331 21.1859 27.331C21.6739 27.331 22.1329 27.203 22.5299 26.98L22.5159 26.987C24.2329 25.997 24.6189 22.909 23.7319 19.033C27.5219 17.868 29.9959 15.986 29.9959 14.004C29.9959 12.017 27.5089 10.134 23.6939 8.965C24.5739 5.079 24.1809 1.983 22.4589 0.991997C22.0769 0.772997 21.6189 0.643997 21.1309 0.643997C21.1179 0.643997 21.1049 0.643997 21.0919 0.643997H21.0939L21.0959 0.645997ZM17.7869 14.005C17.7869 15.548 16.5359 16.799 14.9929 16.799C13.4499 16.799 12.1989 15.548 12.1989 14.005C12.1989 12.462 13.4499 11.211 14.9929 11.211C15.7649 11.211 16.4629 11.524 16.9689 12.029C17.4749 12.535 17.7869 13.233 17.7869 14.005Z" fill="white"/>
</svg>
