<svg width="123" height="101" viewBox="0 0 123 101" fill="none" xmlns="http://www.w3.org/2000/svg">
<g clip-path="url(#clip0_233_587)">
<path fill-rule="evenodd" clip-rule="evenodd" d="M102.79 7.11001L105.38 10.52C106.06 11.42 105.89 12.71 104.99 13.39L102.24 15.48C102.74 16.81 103.06 18.23 103.19 19.68L106.32 20.11C107.44 20.26 108.22 21.3 108.07 22.42L107.49 26.67C107.34 27.79 106.3 28.58 105.18 28.42L101.76 27.95C101.15 29.28 100.37 30.5 99.4499 31.59L101.37 34.11C102.05 35.01 101.87 36.3 100.97 36.98L97.5599 39.57C96.6599 40.25 95.3699 40.07 94.6899 39.18L92.5999 36.43C91.2599 36.93 89.8499 37.25 88.3899 37.38L87.9599 40.51C87.8099 41.63 86.7699 42.41 85.6499 42.26L81.3999 41.68C80.2799 41.53 79.4999 40.49 79.6499 39.37L80.1199 35.95C78.7999 35.34 77.5699 34.56 76.4799 33.65L73.9599 35.56C73.0599 36.24 71.7699 36.07 71.0899 35.17L68.4999 31.76C67.8199 30.86 67.9899 29.57 68.8899 28.89L71.6399 26.8C71.1399 25.46 70.8199 24.05 70.6899 22.6L67.5599 22.17C66.4399 22.02 65.6499 20.98 65.8099 19.86L66.3899 15.61C66.5499 14.49 67.5799 13.71 68.6999 13.86L72.1199 14.33C72.7299 13.01 73.5099 11.78 74.4199 10.69L72.5099 8.17001C71.8299 7.28001 71.9999 5.99001 72.8999 5.31001L76.3099 2.72001C77.2099 2.04001 78.4999 2.21001 79.1799 3.11001L81.2699 5.86001C82.5999 5.36001 84.0199 5.04001 85.4699 4.91001L85.8999 1.78001C86.0499 0.660014 87.0899 -0.129986 88.2099 0.0200142L92.4599 0.600014C93.5799 0.750014 94.3699 1.79001 94.2099 2.91001L93.7399 6.33001C95.0699 6.94001 96.2899 7.72001 97.3899 8.64001L99.9099 6.73001C100.81 6.04001 102.1 6.21001 102.79 7.11001ZM29.6699 67.12V50.62H38.1699C39.7499 50.62 40.9499 50.75 41.7799 51.03C42.6099 51.3 43.2899 51.8 43.7899 52.53C44.2999 53.27 44.5599 54.16 44.5599 55.21C44.5599 56.12 44.3599 56.92 43.9699 57.58C43.5799 58.25 43.0399 58.79 42.3599 59.2C41.9299 59.46 41.3299 59.68 40.5699 59.85C41.1799 60.06 41.6199 60.25 41.8899 60.46C42.0799 60.6 42.3499 60.89 42.6999 61.33C43.0499 61.77 43.2899 62.12 43.4099 62.36L45.8899 67.13H40.1299L37.4099 62.1C37.0599 61.45 36.7599 61.02 36.4899 60.83C36.1199 60.58 35.6999 60.45 35.2399 60.45H34.7899V67.13H29.6699V67.12ZM47.6499 95.85H38.1299L36.7599 100.33H28.1799L38.4099 73.14H47.6099L57.7999 100.33H48.9999L47.6499 95.85ZM45.8699 89.96L42.8999 80.18L39.9199 89.96H45.8699ZM59.7799 73.14H73.7599C76.8099 73.14 79.0899 73.86 80.5999 75.31C82.1099 76.76 82.8699 78.83 82.8699 81.5C82.8699 84.25 82.0399 86.4 80.3899 87.95C78.7399 89.5 76.2099 90.27 72.8199 90.27H68.2099V100.33H59.7799V73.14ZM68.2099 84.76H70.2799C71.9099 84.76 73.0599 84.48 73.7199 83.91C74.3799 83.35 74.7099 82.62 74.7099 81.75C74.7099 80.9 74.4199 80.17 73.8499 79.58C73.2799 78.99 72.1999 78.69 70.6199 78.69H68.2099V84.76ZM86.2699 73.14H94.6999V100.33H86.2699V73.14ZM34.7899 57.32H36.9399C37.1699 57.32 37.6199 57.24 38.2899 57.09C38.6299 57.02 38.9099 56.85 39.1199 56.57C39.3399 56.29 39.4399 55.97 39.4399 55.61C39.4399 55.08 39.2699 54.66 38.9299 54.38C38.5899 54.09 37.9599 53.95 37.0299 53.95H34.7899V57.32ZM46.8699 50.62H60.5199V54.14H51.9899V56.77H59.8999V60.13H51.9899V63.38H60.7699V67.11H46.8699V50.62ZM61.9799 61.66L66.8199 61.36C66.9199 62.15 67.1399 62.74 67.4599 63.15C67.9899 63.81 68.7399 64.15 69.7099 64.15C70.4299 64.15 70.9999 63.98 71.3899 63.64C71.7799 63.3 71.9799 62.9 71.9799 62.45C71.9799 62.02 71.7899 61.64 71.4199 61.3C71.0499 60.96 70.1799 60.65 68.8099 60.34C66.5799 59.84 64.9899 59.17 64.0299 58.34C63.0699 57.51 62.5899 56.45 62.5899 55.16C62.5899 54.31 62.8399 53.51 63.3299 52.76C63.8199 52.01 64.5599 51.41 65.5499 50.98C66.5399 50.55 67.8899 50.34 69.6099 50.34C71.7199 50.34 73.3199 50.73 74.4299 51.52C75.5299 52.31 76.1899 53.55 76.3999 55.27L71.6099 55.56C71.4799 54.81 71.2099 54.26 70.8099 53.93C70.3999 53.59 69.8299 53.42 69.1199 53.42C68.5299 53.42 68.0799 53.55 67.7799 53.8C67.4799 54.05 67.3299 54.36 67.3299 54.72C67.3299 54.98 67.4599 55.21 67.6999 55.43C67.9399 55.64 68.4999 55.85 69.3999 56.04C71.6299 56.52 73.2299 57.01 74.1899 57.5C75.1499 57.99 75.8599 58.6 76.2899 59.33C76.7299 60.05 76.9499 60.87 76.9499 61.77C76.9499 62.83 76.6599 63.8 76.0699 64.69C75.4899 65.58 74.6699 66.26 73.6199 66.72C72.5699 67.18 71.2499 67.41 69.6499 67.41C66.8499 67.41 64.8999 66.87 63.8199 65.79C62.7399 64.69 62.1299 63.32 61.9799 61.66ZM77.6899 50.62H93.1999V54.7H87.9999V67.12H82.8999V54.7H77.6899V50.62ZM60.5299 11.46C58.6999 11.32 56.8499 11.34 55.0199 11.52C49.3899 12.06 43.9199 14.11 39.3999 17.62C34.1699 21.67 30.1999 27.73 28.6699 35.76L28.1899 38.27L25.6899 38.71C23.2399 39.14 21.0499 39.73 19.1299 40.48C17.2699 41.2 15.6099 42.09 14.1599 43.14C12.9999 43.98 11.9999 44.92 11.1499 45.94C8.51993 49.09 7.29993 53.04 7.32993 57.04C7.35993 61.1 8.67993 65.2 11.1199 68.57C12.0299 69.82 13.0799 70.97 14.2799 71.97C15.4999 72.98 16.8699 73.82 18.4099 74.45C19.2799 74.81 20.2099 75.11 21.1799 75.35V82.84C19.1799 82.48 17.3399 81.94 15.6199 81.23C13.3499 80.29 11.3399 79.08 9.56993 77.6C7.88993 76.2 6.41993 74.61 5.16993 72.88C1.83993 68.28 0.0399339 62.66 -6.60841e-05 57.06C-0.0400661 51.4 1.71993 45.77 5.51993 41.21C6.74993 39.73 8.19993 38.37 9.85993 37.17C11.7899 35.77 13.9999 34.59 16.4999 33.62C18.2199 32.95 20.0599 32.39 21.9999 31.94C24.1999 23.2 28.8899 16.47 34.9199 11.8C40.5599 7.43001 47.3499 4.88001 54.3399 4.21001C58.0099 3.86001 61.7299 4.02001 65.3699 4.70001C65.2899 5.03001 65.2199 5.36001 65.1799 5.70001L65.1699 5.76001C65.0999 6.33001 65.0699 6.90001 65.0999 7.48001C64.3299 7.78001 63.6099 8.19001 62.9599 8.69001L62.9299 8.71001C61.9599 9.44001 61.1399 10.38 60.5299 11.46ZM113.44 30.66C114 31.17 114.54 31.7 115.07 32.27C116.14 33.42 117.15 34.72 118.1 36.17C121.3 41.09 122.94 47.66 122.87 54.09C122.8 60.4 121.1 66.68 117.62 71.3C115.35 74.31 112.44 76.77 108.95 78.72C106.56 80.06 103.87 81.17 100.94 82.07V74.32C102.52 73.73 103.99 73.07 105.34 72.32C107.97 70.85 110.12 69.06 111.73 66.91C114.23 63.58 115.46 58.87 115.51 54.04C115.57 48.97 114.33 43.88 111.92 40.18C111.23 39.11 110.47 38.15 109.67 37.29C109.36 36.96 109.05 36.65 108.73 36.35C108.78 35.85 108.8 35.34 108.77 34.83C109.54 34.53 110.26 34.12 110.91 33.62L110.94 33.6C111.97 32.81 112.83 31.81 113.44 30.66ZM88.0799 12.8C92.6899 13.43 95.9099 17.68 95.2799 22.29C94.6499 26.9 90.3999 30.13 85.7899 29.5C81.1799 28.87 77.9499 24.62 78.5899 20.01C79.2299 15.4 83.4699 12.17 88.0799 12.8Z" fill="white"/>
</g>
<defs>
<clipPath id="clip0_233_587">
<rect width="122.88" height="100.33" fill="white"/>
</clipPath>
</defs>
</svg>
