<svg width="185" height="213" viewBox="0 0 185 213" fill="none" xmlns="http://www.w3.org/2000/svg">
<path d="M4 58.5V156.5M4 58.5L91.5 5M4 58.5L49.5 82.68M4 156.5L91.5 208M4 156.5L49.5 130M91.5 208L180.5 156.5M91.5 208V156.5M180.5 156.5V58.5M180.5 156.5L136 133V81.75M180.5 58.5L91.5 5M180.5 58.5L136 81.75M91.5 5V58.5M91.5 105L49.5 82.68M91.5 105L136 81.75M91.5 105V156.5M49.5 130V82.68M49.5 130L91.5 156.5M49.5 82.68L91.5 58.5M91.5 58.5L136 81.75M136 130L91.5 156.5" stroke="white" stroke-width="8"/>
</svg>
