<svg width="99" height="118" viewBox="0 0 99 118" fill="none" xmlns="http://www.w3.org/2000/svg">
<path d="M48.488 13L30 23.75V45.25L48.5 56L67 45.25V23.75L48.488 13ZM59.7755 25.1474L48.488 31.7051L37.2125 25.1474L48.488 18.5898L59.7755 25.1474ZM34.8083 29.3337L46.0838 35.8974V49.0128L34.8083 42.4551V29.3337ZM50.9042 49.0068V35.8974L62.1797 29.3337V42.4551L50.9042 49.0068Z" fill="white"/>
<path d="M76.5 57L58 67.497V88.4852L76.5 99L95 88.503V67.497L76.5 57ZM87.7875 68.8734L76.5 75.2827L65.2125 68.8734L76.5 62.47L87.7875 68.8734ZM62.8083 72.9671L74.0958 79.3705V92.1831L62.8083 85.7797V72.9671ZM78.9042 92.1831V79.3527L90.1917 72.9494V85.762L78.9042 92.1831Z" fill="white"/>
<path d="M21.5 57L3 67.497V88.4852L21.5 99L40 88.4852V67.497L21.5 57ZM32.7875 68.8734L21.5 75.265L10.2125 68.8734L21.5 62.4523L32.7875 68.8734ZM7.80832 72.9494L19.0958 79.3527V92.1654L7.80832 85.762V72.9494ZM23.9042 92.1654V79.3527L35.1917 72.9494V85.762L23.9042 92.1654Z" fill="white"/>
<path d="M67 29V34.3831L84.2815 44.2406V60.3084L89 63V41.549L67 29Z" fill="white"/>
<path d="M63.2927 91L48.4412 100.179L33.7073 91.0693L29 93.9798L48.4412 106L68 93.9105L66.9762 93.2806L63.2927 91Z" fill="white"/>
<path d="M13.6053 45.4672L30 35.5593V30L9 42.6846V65L13.6053 62.2173V45.4672Z" fill="white"/>
</svg>
